<!-- Generated by IcoMoon.io -->
<svg version="1.1" xmlns="http://www.w3.org/2000/svg" width="22" height="28" viewBox="0 0 22 28">
<title>user-secret</title>
<path d="M9 24l1.5-7-1.5-2-2-1zM13 24l2-10-2 1-1.5 2zM15.5 8.219c-0.016-0.031-0.031-0.063-0.063-0.094-0.141-0.109-1.266-0.125-1.5-0.125-0.891 0-1.734 0.125-2.609 0.297-0.109 0.031-0.219 0.031-0.328 0.031s-0.219 0-0.328-0.031c-0.875-0.172-1.719-0.297-2.609-0.297-0.234 0-1.359 0.016-1.5 0.125-0.031 0.031-0.047 0.063-0.063 0.094 0.016 0.141 0.031 0.281 0.063 0.422 0.094 0.125 0.172 0.078 0.234 0.266 0.406 1.109 0.594 1.969 2 1.969 2.016 0 1.453-1.859 2.109-1.859h0.187c0.656 0 0.094 1.859 2.109 1.859 1.406 0 1.594-0.859 2-1.969 0.063-0.187 0.141-0.141 0.234-0.266 0.031-0.141 0.047-0.281 0.063-0.422zM22 21.953c0 2.547-1.672 4.047-4.172 4.047h-13.656c-2.5 0-4.172-1.5-4.172-4.047 0-2.828 0.5-7.109 3.406-8.516l-1.406-3.437h3.344c-0.219-0.641-0.344-1.313-0.344-2 0-0.172 0.016-0.344 0.031-0.5-0.609-0.125-3.031-0.625-3.031-1.5 0-0.922 2.656-1.422 3.281-1.547 0.328-1.172 1.109-2.953 1.906-3.875 0.313-0.359 0.703-0.578 1.188-0.578 0.938 0 1.687 0.969 2.625 0.969s1.687-0.969 2.625-0.969c0.484 0 0.875 0.219 1.188 0.578 0.797 0.922 1.578 2.703 1.906 3.875 0.625 0.125 3.281 0.625 3.281 1.547 0 0.875-2.422 1.375-3.031 1.5 0.078 0.844-0.031 1.687-0.313 2.5h3.344l-1.281 3.516c2.797 1.453 3.281 5.656 3.281 8.437z"></path>
</svg>
